PathFileType	4	(X/Y/Z)	E:\Qualisys_Data\Carbon_Farble_Plate\Data\Amateur_Runner\S1\T2\S1T2V23_c3d.trc
DataRate	CameraRate	NumFrames	NumMarkers	Units	OrigDataRate	OrigDataStartFrame	OrigNumFrames
200.000000	200.000000	4	39	mm	200.000000	37	300
Frame#	Time	LSHO			RSHO			LICST			RICST			LASIS			LHEEL			RASIS			LTROC			RTROC			SACR			LTH1			LSK4			LTH2			LTH3			RHM5			LSK2			LTH4			RTH1			LTOE			RTH2			RTH3			RTH4			LLEP			RLEP			LSK1			LSK3			RSK1			LHM5			RSK2			LFT1			RSK3			RSK4			LLME			RLME			RTOE			RHEEL			RFT1			RFT2			LFT2			
		X1	Y1	Z1	X2	Y2	Z2	X3	Y3	Z3	X4	Y4	Z4	X5	Y5	Z5	X6	Y6	Z6	X7	Y7	Z7	X8	Y8	Z8	X9	Y9	Z9	X10	Y10	Z10	X11	Y11	Z11	X12	Y12	Z12	X13	Y13	Z13	X14	Y14	Z14	X15	Y15	Z15	X16	Y16	Z16	X17	Y17	Z17	X18	Y18	Z18	X19	Y19	Z19	X20	Y20	Z20	X21	Y21	Z21	X22	Y22	Z22	X23	Y23	Z23	X24	Y24	Z24	X25	Y25	Z25	X26	Y26	Z26	X27	Y27	Z27	X28	Y28	Z28	X29	Y29	Z29	X30	Y30	Z30	X31	Y31	Z31	X32	Y32	Z32	X33	Y33	Z33	X34	Y34	Z34	X35	Y35	Z35	X36	Y36	Z36	X37	Y37	Z37	X38	Y38	Z38	X39	Y39	Z39	

38	0.185	-2325.564208984375	1474.453247070312	-555.4573974609375	-2361.07861328125	1427.946411132812	-227.0746612548828	-2379.7255859375	979.9283447265624	-553.8031005859375	-2402.315185546875	1027.811767578125	-255.4145965576172	-2338.039306640625	947.4511108398438	-520.4169921875	-2683.573974609375	430.6703491210938	-450.3410034179688	-2359.60302734375	980.2456665039062	-254.4620666503906	-2441.47998046875	857.2838134765625	-563.7695922851562	-2463.356689453125	887.91064453125	-228.3820037841797	-2510.1689453125	1019.412414550781	-409.8342895507812	-2267.0205078125	752.1473999023438	-545.6196899414062	-2534.594970703125	468.6722717285156	-487.6723937988281	-2340.3056640625	718.65869140625	-575.0200805664062	-2228.443359375	655.2469482421875	-539.0982666015625	-2367.83447265625	63.48550796508789	-285.1856994628906	-2442.0029296875	489.4631958007812	-529.3316650390625	-2306.10986328125	624.5577392578125	-560.4692993164062	-2309.657958984375	775.7066650390625	-240.0711212158203	-2616.431396484375	186.4601440429688	-455.1618347167969	-2384.160400390625	756.4532470703125	-218.6824493408203	-2288.2578125	676.7355346679688	-251.8775634765625	-2365.23388671875	659.5997924804688	-238.115478515625	-2240.5625	496.6126708984375	-527.1406860351562	-2309.567626953125	496.5455932617188	-282.7424926757812	-2426.15185546875	407.4493103027344	-521.125	-2527.047607421875	393.8509216308594	-514.0308837890625	-2366.570556640625	314.9581604003906	-280.4239807128906	-2670.07080078125	239.5178375244141	-520.045654296875	-2442.772705078125	346.1266784667969	-285.8248596191406	-2708.821533203125	415.5109252929688	-423.9316711425781	-2403.149658203125	222.7519989013672	-299.9286499023438	-2476.516357421875	254.7841339111328	-314.8710327148438	-2644.4833984375	390.0845336914062	-503.46337890625	-2485.06982421875	124.1170120239258	-305.4178466796875	-2306.00830078125	71.4061279296875	-363.6294555664062	-2549.325439453125	98.17599487304688	-348.2960205078125	-2550.947021484375	68.93968200683594	-376.2930603027344	-2558.58740234375	74.91557312011719	-320.3282775878906	-2715.246337890625	417.9023742675781	-478.0522766113281
39	0.19	-2308.352783203125	1476.92236328125	-556.7340087890625	-2339.252197265625	1429.990844726562	-227.3670806884766	-2362.706298828125	982.8229370117188	-555.3076171875	-2379.07666015625	1028.224243164062	-254.9951934814453	-2303.83251953125	954.2257080078124	-513.0811157226562	-2652.3125	424.2098999023438	-450.413330078125	-2339.632568359375	981.0687866210938	-255.5635986328125	-2421.875244140625	859.0162353515625	-562.6443481445312	-2442.885009765625	888.4229125976562	-227.3806610107422	-2490.266845703125	1021.019287109375	-407.3545227050781	-2245.27099609375	758.6174926757812	-545.0591430664062	-2504.7041015625	467.3407287597656	-488.1330261230469	-2317.2607421875	722.4569091796875	-574.5635375976562	-2203.156494140625	662.7703857421875	-538.3560180664062	-2367.9580078125	63.58652877807617	-285.3120422363281	-2411.6181640625	490.06787109375	-528.83984375	-2279.940673828125	629.5347900390625	-559.5631713867188	-2293.651123046875	770.6343994140625	-240.3520660400391	-2574.116455078125	181.8356628417969	-455.6017456054688	-2368.743408203125	754.5604248046875	-219.880615234375	-2275.58837890625	671.7703247070312	-252.0181732177734	-2353.408203125	657.8075561523438	-238.6513671875	-2209.80859375	503.3409729003906	-526.0062255859375	-2302.84130859375	493.7275085449219	-283.3507995605469	-2392.896240234375	408.6293334960938	-520.130126953125	-2493.403076171875	391.5604248046875	-513.2750244140625	-2362.55712890625	313.8446044921875	-280.83447265625	-2629.64892578125	233.4046630859375	-520.2391967773438	-2437.143798828125	346.3213806152344	-286.2169494628906	-2676.386962890625	406.535888671875	-424.8108520507812	-2399.7578125	222.8000335693359	-300.8703918457031	-2473.149658203125	256.5554809570312	-314.9658508300781	-2610.6982421875	385.1165466308594	-503.8935852050781	-2482.6220703125	124.6968536376953	-305.5587463378906	-2305.5791015625	70.75416564941406	-363.9180908203125	-2547.213134765625	99.77407073974608	-347.6073303222656	-2550.3037109375	70.42330932617188	-375.7192077636719	-2557.866943359375	75.56111145019531	-320.068359375	-2682.86083984375	409.6708984375	-478.3374328613281
40	0.195	-2291.67822265625	1478.978637695312	-557.5916748046875	-2317.104248046875	1432.8564453125	-227.6509246826172	-2344.739013671875	986.351806640625	-555.3234252929688	-2358.94677734375	1030.442626953125	-253.6669464111328	-2285.896484375	956.995361328125	-514.400146484375	-2620.74755859375	415.9130249023438	-450.4757080078125	-2315.376953125	981.8646240234376	-250.6935272216797	-2402.759033203125	861.6008911132812	-562.1728515625	-2423.081298828125	890.054931640625	-226.8672180175781	-2470.078857421875	1022.965698242188	-405.0757446289062	-2223.233154296875	764.8029174804688	-544.7011108398438	-2473.94580078125	464.4552307128906	-488.2933349609375	-2294.567138671875	726.4793701171875	-573.8580932617188	-2178.371337890625	670.8533325195312	-537.783203125	-2367.759765625	63.21962356567383	-285.1965637207031	-2381.413818359375	490.4755554199219	-528.4559326171875	-2253.880859375	634.6971435546875	-558.4537353515625	-2276.206787109375	767.1969604492188	-239.8222198486328	-2529.95556640625	178.1910858154297	-456.6107177734375	-2352.77392578125	754.2152099609375	-219.4378814697266	-2263.7451171875	666.8954467773438	-252.2050476074219	-2343.972900390625	656.5725708007812	-238.9498748779297	-2179.476806640625	511.7948608398438	-524.86572265625	-2293.99853515625	492.0897216796875	-284.3868408203125	-2360.4375	410.1222839355469	-519.5862426757812	-2459.3232421875	389.0189514160156	-512.4229125976562	-2357.275146484375	313.6736755371094	-282.1849975585938	-2587.521728515625	226.9237365722656	-520.8564453125	-2431.70263671875	347.3114318847656	-286.1454772949219	-2643.912353515625	396.9747314453125	-425.4212646484375	-2396.42578125	222.9173736572266	-301.2785034179688	-2468.450927734375	258.3035278320312	-314.2350158691406	-2576.953369140625	378.7230224609375	-503.7777404785156	-2481.2705078125	126.3049392700195	-305.2050476074219	-2305.441650390625	71.0943374633789	-363.2763671875	-2546.087646484375	101.0852966308594	-347.4629821777344	-2551.608154296875	71.64259338378906	-375.968017578125	-2558.039306640625	76.64268493652344	-320.0861511230469	-2651.214599609375	401.1062622070312	-478.2226257324219
41	0.2	-2274.751708984375	1482.081909179688	-558.7728881835938	-2293.904052734375	1435.589233398438	-227.7115936279297	-2325.45263671875	989.1936645507812	-554.30517578125	-2336.968017578125	1030.693725585938	-252.0366058349609	-2268.817626953125	959.96142578125	-515.3756103515625	-2589.282958984375	408.0346374511719	-450.6964721679688	-2291.65234375	982.312744140625	-252.9311981201172	-2383.809326171875	865.260009765625	-562.4158325195312	-2402.45849609375	891.5133666992188	-225.6773986816406	-2449.81005859375	1025.225341796875	-402.7594299316406	-2201.48828125	771.5095825195312	-543.7512817382812	-2443.493408203125	462.3296203613281	-488.6479797363281	-2271.419189453125	730.8088989257812	-572.5696411132812	-2154.1865234375	678.8984375	-536.9119262695312	-2367.838134765625	63.32330322265625	-285.4313354492188	-2351.144775390625	490.569091796875	-527.6441650390625	-2229.073974609375	641.2105712890625	-557.7217407226562	-2259.921142578125	764.6185913085938	-239.6267852783203	-2490.216064453125	174.2686462402344	-456.3786315917969	-2337.783447265625	754.4642333984375	-220.2308349609375	-2251.439697265625	663.1324462890625	-251.5848693847656	-2332.06689453125	656.7284545898438	-239.8855438232422	-2150.951904296875	519.854248046875	-524.1281127929688	-2284.236328125	491.4217529296875	-286.1040344238281	-2326.685546875	410.38330078125	-518.7125854492188	-2425.972412109375	387.2083129882812	-512.0708618164062	-2352.164794921875	313.6632385253906	-282.7513427734375	-2548.834716796875	220.3394775390625	-521.4010009765625	-2426.49267578125	348.5927124023438	-286.0796508789062	-2611.8544921875	387.9166259765625	-425.6728820800781	-2393.4365234375	223.4366607666016	-301.8002319335938	-2464.507080078125	259.9665222167969	-313.4633178710938	-2543.544921875	372.5983276367188	-503.5170593261719	-2480.747314453125	128.6925354003906	-305.03857421875	-2305.12451171875	70.45672607421875	-363.8811950683594	-2546.029296875	102.7519607543945	-347.4055786132812	-2550.423095703125	73.2572021484375	-375.6387023925781	-2553.61572265625	78.83020782470703	-318.9849853515625	-2619.404052734375	392.2029724121094	-478.6318054199219
